<svg xmlns="http://www.w3.org/2000/svg" version="1.1" xmlns:xlink="http://www.w3.org/1999/xlink" width="2000" height="1500" viewBox="0 0 2000 1500"><rect width="2000" height="1500" x="0" y="0" id="background" stroke="transparent" fill="#000000"></rect><svg xml:space="preserve" width="1500" height="1125" data-version="2" data-id="lg_scCBLrjbtH2OgYFyI7" viewBox="0 0 194 201" x="250" y="187.5"><rect width="100%" height="100%" fill="transparent"></rect><path fill="#2ecc40" fill-rule="evenodd" d="m85.305 17.347.104-.052.052-.026.077-.077.052-.052q0-.052.051-.078v-.103l.026-.026v-.077l.026-.052v-.103l.026-.052v-.155l.026-.13.103-.077-.077-.052v.13l-1.473 1.111zm.57-1.086c1.007.362 1.317-.568 1.808-1.163l.13-.103.129-.13zm34.631 136.979c23.597-28.016 38.38-59.935 41.404-96.79a74.95 74.95 0 0 0-3.773-32.177c-1.24-3.411-2.275-7.055-5.324-9.46q-5.118-4.134-11.036-7.132a46.521 46.521 0 0 0-26.982-4.885c-9.201 1.137-17.187 5.014-24.553 10.416l-.104.077c-.258.181-.465.362-.258.75.388.258.646 0 .956-.181 5.48-2.585 11.114-4.782 17.136-5.609 12.509-1.731 23.13 1.603 31.091 11.76 6.668 8.477 9.175 18.479 10.08 28.946.956 10.855.051 21.632-2.481 32.203-9.434 39.284-28.947 71.772-63.528 94.334q-.051-.077 0 .026c1.965.75 3.955 1.422 5.867 2.223 1.163.49 2.068.362 3.18-.259a111.134 111.134 0 0 0 28.3-24.216" vector-effect="non-scaling-stroke"></path><path fill="#2ecc40" fill-rule="evenodd" d="M104.596 148.07c19.435-23.648 31.453-50.398 33.34-81.231.775-12.328-.724-24.372-7.056-35.304-5.944-10.235-14.783-16.05-26.879-16.49-7.288-.258-14.06 1.68-20.676 4.472-.051-1.861-.904-.879-1.55-.414a121.471 121.471 0 0 0-26.052 24.889 162.824 162.824 0 0 0-27.784 53.422c-2.119 6.978-3.618 14.06-4.73 21.244-.18 1.24.104 1.603 1.396 1.628 5.118.078 5.118.13 5.841-4.91l.181-1.5A175.746 175.746 0 0 1 57.61 48.645 142.147 142.147 0 0 1 79.733 22.36c.827.62-.569 1.06-.259 1.628q0 .052.078.13h.465l1.034-.311c6.435-1.783 12.922-2.326 19.435-.646 11.372 2.92 18.221 10.726 22.305 21.296 4.833 12.483 4.807 25.38 2.79 38.354a129.225 129.225 0 0 1-19.77 50.656C96.195 148.2 84.513 160.863 68.8 169.34c-.207.13-.518.259-.362.62l.361.207c1.422.517 2.895.956 4.239 1.628 1.654.802 2.946.517 4.549-.387a100.795 100.795 0 0 0 27.008-23.338m35.356 8.193a217.098 217.098 0 0 0 44.04-84.178 14.473 14.473 0 0 0-.207-9.407 126.64 126.64 0 0 0-8.58-19.332 173.162 173.162 0 0 1-1.887 19.125 188.669 188.669 0 0 1-23.571 64.018c-9.899 17.006-21.865 32.332-37.114 44.97a111.134 111.134 0 0 1-14.085 9.77c2.533.956 4.755 1.731 6.926 2.662 1.319.594 2.352.388 3.567-.362a131.81 131.81 0 0 0 30.91-27.266" vector-effect="non-scaling-stroke"></path><path fill="#2ecc40" fill-rule="evenodd" d="M92.322 126.83c-.284.516-.62 1.007-.723 1.55a67.197 67.197 0 0 1-6.41 19.668c.44-.078.724-.052.853-.155q1.81-1.99 3.54-4.084a121.471 121.471 0 0 0 26.027-57.737c1.809-11.295 1.654-22.563-1.99-33.547-4.988-15.145-16.67-25.458-34.038-24.036-4.342.362-5.893 1.447-7.521 5.944l.155.078 1.085.077c13.75.13 23.106 6.927 28.662 19.203 4.86 10.778 5.221 22.201 3.8 33.702a105.964 105.964 0 0 1-13.44 39.336" vector-effect="non-scaling-stroke"></path><path fill="#2ecc40" fill-rule="evenodd" d="M76.27 70.382q.156-.362.181-.62a2.585 2.585 0 0 0-.232-1.034 33.598 33.598 0 0 0-9.15-12.664c-1.343-1.086-3.798-1.474-3.902-3.231-.103-1.602 1.292-3.282 1.887-4.962.362-1.06.775-1.215 1.835-.827q8.839 3.179 14.008 11.01c5.996 9.045 7.443 19.177 6.952 29.747-.052 1.19 0 2.275.414 3.36a72.366 72.366 0 0 1 3.876 16.954c.905-.517.88-1.344 1.086-1.99a87.873 87.873 0 0 0 3.308-14.731c1.37-10.545 1.163-21.012-2.869-31.066-3.928-9.744-10.467-16.8-20.96-19.461-3.748-.957-3.722-.93-5.867 2.248a193.837 193.837 0 0 0-17.11 31.143 178.33 178.33 0 0 0-13.258 44.506c-.18 1.214 0 1.55 1.19 1.473a33.598 33.598 0 0 1 4.548 0c1.525.129 1.938-.569 2.145-1.939 1.447-8.89 3.748-17.574 6.384-26.155 2.17-7.081 5.582-13.724 6.926-21.09.646-3.618 1.835-7.08 2.688-10.647.388-1.577.879-1.913 2.43-1.034a51.69 51.69 0 0 1 13.49 11.01m113.9 20.159c-16.567 38.845-38.2 73.296-73.788 97.28 2.74 1.034 5.376 1.965 7.96 3.024 1.034.44 1.81.259 2.74-.362a139.563 139.563 0 0 0 19.9-15.894c18.092-17.316 32.255-37.501 44.17-59.392q.646-1.137.62-2.455a157.654 157.654 0 0 0-1.603-22.201m-54.713 104.362c3.179 1.189 6.022 2.145 8.787 3.334 1.396.594 2.378.284 3.54-.517 13.052-9.123 24.217-20.237 34.607-32.177.698-.801 1.034-1.732 1.344-2.688a149.901 149.901 0 0 0 5.583-21.245c.155-.827.439-1.731-.104-2.79-14.938 21.58-31.557 41.248-53.757 56.083M65.364 30.76A100.795 100.795 0 0 0 50.348 42.34a131.81 131.81 0 0 0-29.825 44.557q-6.332 15.248-8.529 31.582c-.052.595-.44 1.628.259 1.732q2.377.388 4.703 0c1.086-.207.776-1.55.879-2.404.801-6.306 2.197-12.483 3.98-18.556q8.503-28.688 27.422-51.923 7.391-8.917 16.127-16.54" vector-effect="non-scaling-stroke"></path><path fill="#2ecc40" fill-rule="evenodd" d="m44.899 45.726-.414-.466a25.845 25.845 0 0 0-6.642 4.782A112.426 112.426 0 0 0 2.54 116.334c-.62 4.239-.646 4.187 3.101 4.135 1.086-.051 1.55-.336 1.55-1.447q.104-1.86.466-3.644a121.471 121.471 0 0 1 31.17-63.579q2.971-3.101 6.073-6.1" vector-effect="non-scaling-stroke"></path></svg></svg>